<svg xmlns="http://www.w3.org/2000/svg" viewBox="0 0 24 24" height="24" width="24" id="Data-Transfer-Vertical--Streamline-Ultimate.svg"><desc>Data Transfer Vertical Streamline Icon: https://streamlinehq.com</desc><g><path d="M6.48 5.12A1.5 1.5 0 0 0 5 6.62v10.11a0.25 0.25 0 0 1 -0.25 0.25H3.48a1 1 0 0 0 -0.86 1.52l3 5a1 1 0 0 0 1.72 0l3 -5a1 1 0 0 0 -0.86 -1.5H8.23a0.25 0.25 0 0 1 -0.23 -0.27V6.62a1.5 1.5 0 0 0 -1.52 -1.5Z" fill="#000000" stroke-width="1"></path><path d="M17.52 18.84a1.5 1.5 0 0 0 1.5 -1.5V7.23a0.25 0.25 0 0 1 0.25 -0.23h1.25a1 1 0 0 0 0.86 -1.51l-3 -5a1 1 0 0 0 -1.72 0l-3 5A1 1 0 0 0 14.52 7h1.25a0.25 0.25 0 0 1 0.25 0.25v10.09a1.5 1.5 0 0 0 1.5 1.5Z" fill="#000000" stroke-width="1"></path></g></svg>